<svg width="236" height="184" viewBox="0 0 236 184" fill="none" xmlns="http://www.w3.org/2000/svg">
<path d="M15.625 181.5C12.425 181.5 5.29167 115.5 2.125 82.5C5.29167 81 12.425 78 15.625 78C19.625 78 72.625 146.5 72.625 149.5C72.625 152.5 56.625 161.5 55.125 159C53.625 156.5 47.625 141.5 44.625 140.5C41.625 139.5 31.625 146.5 28.125 149.5C24.625 152.5 33.625 170.5 31.625 174.5C29.625 178.5 19.625 181.5 15.625 181.5Z" stroke="black" stroke-width="4"/>
<path d="M22.125 136.5C19.125 135.5 19.625 112.5 19.625 108C19.6364 106.08 37.625 125 38.125 127.5C38.625 130 25.125 137.5 22.125 136.5Z" stroke="black" stroke-width="4"/>
<path d="M107.625 143.5C102.825 141.5 75.625 91.3334 62.625 66.5001C106.625 20.5001 123.458 54.8333 128.125 76C190.625 112.5 113.625 146 107.625 143.5Z" stroke="black" stroke-width="4"/>
<path d="M170.271 69.8753C138.795 9.12579 197.867 -5.52309 207.784 5.24817C216.752 19.7246 206.059 23.3438 199.591 23.3438C177.515 21.6204 181.482 43.8808 186.225 55.2265C198.988 80.7327 213.327 71.5987 212.096 62.9817C209.681 46.0925 221.15 43.5936 227.187 47.0404C250.039 74.1838 201.747 130.625 170.271 69.8753Z" stroke="black" stroke-width="4"/>
</svg>
