<svg width="21" height="22" viewBox="0 0 21 22" fill="none" xmlns="http://www.w3.org/2000/svg">
<path d="M20.9067 1.10036V3.30108C20.9067 5.34388 20.0952 7.30302 18.6507 8.7475C17.2062 10.192 15.247 11.0035 13.2042 11.0035H12.1038V12.1039H17.6056V19.8064C17.6056 20.39 17.3738 20.9497 16.961 21.3624C16.5483 21.7752 15.9886 22.007 15.4049 22.007H6.60212C6.01844 22.007 5.45869 21.7752 5.04598 21.3624C4.63327 20.9497 4.4014 20.39 4.4014 19.8064V12.1039H9.90318V8.8028C9.90318 6.76 10.7147 4.80087 12.1591 3.35638C13.6036 1.91186 15.5628 1.10036 17.6056 1.10036H20.9067ZM3.85121 2.69105e-06C5.17163 -0.00106421 6.47293 0.315124 7.64563 0.921959C8.81832 1.52879 9.82802 2.4085 10.5898 3.48699C9.42777 5.0153 8.79994 6.88296 8.80279 8.8028V9.90319H8.25265C6.06392 9.90319 3.96482 9.03372 2.41714 7.48603C0.869472 5.93839 0 3.83928 0 1.65053V2.69105e-06H3.85121Z" fill="#312E2E"/>
</svg>
